<?xml version="1.0" encoding="utf-8"?>
<!-- Generator: Adobe Illustrator 15.1.0, SVG Export Plug-In . SVG Version: 6.00 Build 0)  -->
<!DOCTYPE svg PUBLIC "-//W3C//DTD SVG 1.1//EN" "http://www.w3.org/Graphics/SVG/1.1/DTD/svg11.dtd">
<svg version="1.1" id="Layer_1" xmlns="http://www.w3.org/2000/svg" xmlns:xlink="http://www.w3.org/1999/xlink" x="0px" y="0px"
	 width="258.086px" height="255.861px" viewBox="0 0 258.086 255.861" enable-background="new 0 0 258.086 255.861"
	 xml:space="preserve">
<g>
	<g>
		
			<linearGradient id="SVGID_1_" gradientUnits="userSpaceOnUse" x1="0.908" y1="125.4788" x2="257.738" y2="125.4788" gradientTransform="matrix(1 0 0 -1 -0.02 254.9565)">
			<stop  offset="0" style="stop-color:#9765FA"/>
			<stop  offset="1" style="stop-color:#2C005C"/>
		</linearGradient>
		<path id="SVGID_3_" fill="url(#SVGID_1_)" d="M32.943,222.823v-17.707c0-1.704,1.381-3.078,3.079-3.078h26.664v20.785
			c0,1.703-1.379,3.077-3.078,3.077H36.022C34.323,225.9,32.943,224.526,32.943,222.823 M32.943,110.375V36.137
			c0-1.706,1.381-3.078,3.079-3.078h186.563c1.699,0,3.079,1.373,3.079,3.078V54.79c0,1.7-1.38,3.08-3.079,3.08H68.842
			c-3.398,0-6.157,2.751-6.157,6.155v49.43H36.022C34.323,113.454,32.943,112.074,32.943,110.375 M6.175,1.063
			C3.188,1.486,0.888,4.056,0.888,7.158v132.188c0,3.405,2.758,6.157,6.157,6.157h159.818c1.698,0,3.077,1.38,3.077,3.078v18.319
			c0,1.698-1.379,3.078-3.077,3.078H7.045c-3.399,0-6.157,2.761-6.157,6.157v75.66c0,3.104,2.3,5.674,5.288,6.096h83.277
			c2.987-0.422,5.288-2.991,5.288-6.096v-49.762h101.1c3.399,0,6.157-2.759,6.157-6.155V119.61c0-3.403-2.758-6.155-6.157-6.155
			h-101.1V92.997c0-1.7,1.38-3.08,3.077-3.08h153.743c3.398,0,6.156-2.75,6.156-6.155V7.158c0-3.104-2.299-5.673-5.287-6.096H6.175z
			"/>
	</g>
	<g>
		<defs>
			<path id="SVGID_2_" d="M32.943,222.823v-17.707c0-1.704,1.381-3.078,3.079-3.078h26.664v20.785c0,1.703-1.379,3.077-3.078,3.077
				H36.022C34.323,225.9,32.943,224.526,32.943,222.823 M32.943,110.375V36.137c0-1.706,1.381-3.078,3.079-3.078h186.563
				c1.699,0,3.079,1.373,3.079,3.078V54.79c0,1.7-1.38,3.08-3.079,3.08H68.842c-3.398,0-6.157,2.751-6.157,6.155v49.43H36.022
				C34.323,113.454,32.943,112.074,32.943,110.375 M6.175,1.063C3.188,1.486,0.888,4.056,0.888,7.158v132.188
				c0,3.405,2.758,6.157,6.157,6.157h159.818c1.698,0,3.077,1.38,3.077,3.078v18.319c0,1.698-1.379,3.078-3.077,3.078H7.045
				c-3.399,0-6.157,2.761-6.157,6.157v75.66c0,3.104,2.3,5.674,5.288,6.096h83.277c2.987-0.422,5.288-2.991,5.288-6.096v-49.762
				h101.1c3.399,0,6.157-2.759,6.157-6.155V119.61c0-3.403-2.758-6.155-6.157-6.155h-101.1V92.997c0-1.7,1.38-3.08,3.077-3.08
				h153.743c3.398,0,6.156-2.75,6.156-6.155V7.158c0-3.104-2.299-5.673-5.287-6.096H6.175z"/>
		</defs>
		<clipPath id="SVGID_4_">
			<use xlink:href="#SVGID_2_"  overflow="visible"/>
		</clipPath>
		
			<linearGradient id="SVGID_5_" gradientUnits="userSpaceOnUse" x1="252.9617" y1="-179.572" x2="253.176" y2="-179.572" gradientTransform="matrix(1340.0897 -704.5624 704.5624 1340.0898 -212421.9375 419041.6875)">
			<stop  offset="0" style="stop-color:#9765FA"/>
			<stop  offset="1" style="stop-color:#2C005C"/>
		</linearGradient>
		<polygon clip-path="url(#SVGID_4_)" fill="url(#SVGID_5_)" points="-104.901,56.682 202.1,-104.725 363.508,202.274 
			56.507,363.683 		"/>
	</g>
</g>
<g>
	<g>
		
			<linearGradient id="SVGID_6_" gradientUnits="userSpaceOnUse" x1="0.908" y1="181.6731" x2="257.739" y2="181.6731" gradientTransform="matrix(1 0 0 -1 -0.02 254.9565)">
			<stop  offset="0" style="stop-color:#9765FA"/>
			<stop  offset="1" style="stop-color:#2C005C"/>
		</linearGradient>
		<path id="SVGID_7_" fill="url(#SVGID_6_)" d="M6.175,1.063C3.188,1.486,0.888,4.056,0.888,7.158v132.188
			c0,3.405,2.758,6.157,6.157,6.157h47.631l-6.365-32.05H36.022c-1.699,0-3.079-1.38-3.079-3.079V36.137
			c0-1.706,1.381-3.078,3.079-3.078h186.563c27.346,0,35.134,7.203,35.134,24.748V7.158c0-3.104-2.299-5.673-5.287-6.096H6.175z"/>
	</g>
	<g>
		<defs>
			<path id="SVGID_8_" d="M6.175,1.063C3.188,1.486,0.888,4.056,0.888,7.158v132.188c0,3.405,2.758,6.157,6.157,6.157h47.631
				l-6.365-32.05H36.022c-1.699,0-3.079-1.38-3.079-3.079V36.137c0-1.706,1.381-3.078,3.079-3.078h186.563
				c27.346,0,35.134,7.203,35.134,24.748V7.158c0-3.104-2.299-5.673-5.287-6.096H6.175z"/>
		</defs>
		<clipPath id="SVGID_9_">
			<use xlink:href="#SVGID_8_"  overflow="visible"/>
		</clipPath>
		
			<linearGradient id="SVGID_10_" gradientUnits="userSpaceOnUse" x1="254.0535" y1="-179.8059" x2="254.2681" y2="-179.8059" gradientTransform="matrix(-1827.3951 834.5104 -834.5104 -1827.395 314515.9688 -540596.1875)">
			<stop  offset="0" style="stop-color:#9765FA"/>
			<stop  offset="1" style="stop-color:#2C005C"/>
		</linearGradient>
		<polygon clip-path="url(#SVGID_9_)" fill="url(#SVGID_10_)" points="312.298,120.58 45.206,242.551 -53.691,25.988 213.4,-95.984 
					"/>
	</g>
</g>
<g>
	<g>
		
			<linearGradient id="SVGID_12_" gradientUnits="userSpaceOnUse" x1="0.908" y1="108.9802" x2="202.0183" y2="108.9802" gradientTransform="matrix(1 0 0 -1 -0.02 254.9565)">
			<stop  offset="0" style="stop-color:#9765FA"/>
			<stop  offset="1" style="stop-color:#2C005C"/>
		</linearGradient>
		<path id="SVGID_11_" fill="url(#SVGID_12_)" d="M0.888,139.345c0,3.405,2.758,6.157,6.157,6.157h159.818
			c1.698,0,3.077,1.378,3.077,3.078V166.9c0,1.7-1.379,3.078-3.077,3.078v32.059h28.978c3.399,0,6.157-2.759,6.157-6.157v-76.271
			c0-3.403-2.758-6.155-6.157-6.155H36.022c-23.001,0-35.134-2.195-35.134-23.536V139.345z"/>
	</g>
	<g>
		<defs>
			<path id="SVGID_13_" d="M0.888,139.345c0,3.405,2.758,6.157,6.157,6.157h159.818c1.698,0,3.077,1.378,3.077,3.078V166.9
				c0,1.7-1.379,3.078-3.077,3.078v32.059h28.978c3.399,0,6.157-2.759,6.157-6.157v-76.271c0-3.403-2.758-6.155-6.157-6.155H36.022
				c-23.001,0-35.134-2.195-35.134-23.536V139.345z"/>
		</defs>
		<clipPath id="SVGID_14_">
			<use xlink:href="#SVGID_13_"  overflow="visible"/>
		</clipPath>
		
			<linearGradient id="SVGID_16_" gradientUnits="userSpaceOnUse" x1="253.218" y1="-179.3503" x2="253.4317" y2="-179.3503" gradientTransform="matrix(1441.6117 383.753 -383.753 1441.6117 -433893.0313 161492.7969)">
			<stop  offset="0" style="stop-color:#9765FA"/>
			<stop  offset="1" style="stop-color:#2C005C"/>
		</linearGradient>
		<polygon clip-path="url(#SVGID_14_)" fill="url(#SVGID_16_)" points="14.197,39.924 229.868,97.335 188.69,252.028 
			-26.983,194.617 		"/>
	</g>
</g>
<g>
	<g>
		
			<linearGradient id="SVGID_17_" gradientUnits="userSpaceOnUse" x1="0.908" y1="53.2581" x2="202.0183" y2="53.2581" gradientTransform="matrix(1 0 0 -1 -0.02 254.9565)">
			<stop  offset="0" style="stop-color:#9765FA"/>
			<stop  offset="1" style="stop-color:#2C005C"/>
		</linearGradient>
		<path id="SVGID_15_" fill="url(#SVGID_17_)" d="M166.864,169.979H7.045c-3.399,0-6.157,2.758-6.157,6.157v75.662
			c0,3.105,2.306,5.68,5.3,6.096h29.834v-31.996c-1.699,0-3.079-1.374-3.079-3.078v-17.704c0-1.706,1.381-3.078,3.079-3.078h159.819
			c3.399,0,6.157-2.759,6.157-6.157v-50.377C201.998,164.709,193.076,169.979,166.864,169.979"/>
	</g>
	<g>
		<defs>
			<path id="SVGID_18_" d="M166.864,169.979H7.045c-3.399,0-6.157,2.758-6.157,6.157v75.662c0,3.105,2.306,5.68,5.3,6.096h29.834
				v-31.996c-1.699,0-3.079-1.374-3.079-3.078v-17.704c0-1.706,1.381-3.078,3.079-3.078h159.819c3.399,0,6.157-2.759,6.157-6.157
				v-50.377C201.998,164.709,193.076,169.979,166.864,169.979"/>
		</defs>
		<clipPath id="SVGID_20_">
			<use xlink:href="#SVGID_18_"  overflow="visible"/>
		</clipPath>
		
			<linearGradient id="SVGID_21_" gradientUnits="userSpaceOnUse" x1="253.9417" y1="-179.5466" x2="254.1557" y2="-179.5466" gradientTransform="matrix(-1411.1553 580.7056 -580.7056 -1411.1553 254304.0781 -400679.25)">
			<stop  offset="0" style="stop-color:#9765FA"/>
			<stop  offset="1" style="stop-color:#2C005C"/>
		</linearGradient>
		<polygon clip-path="url(#SVGID_20_)" fill="url(#SVGID_21_)" points="241.55,241.619 30.013,328.668 -38.665,161.781 
			172.873,74.729 		"/>
	</g>
</g>
<g>
	<g>
		
			<linearGradient id="SVGID_22_" gradientUnits="userSpaceOnUse" x1="0.908" y1="24.9905" x2="94.7615" y2="24.9905" gradientTransform="matrix(1 0 0 -1 -0.02 254.9565)">
			<stop  offset="0" style="stop-color:#9765FA"/>
			<stop  offset="1" style="stop-color:#2C005C"/>
		</linearGradient>
		<path id="SVGID_19_" fill="url(#SVGID_22_)" d="M62.686,202.037v20.782c0,1.704-1.379,3.078-3.078,3.078H36.022
			c-20.104,0-35.134,0-35.134-23.86v49.762c0,3.106,2.306,5.68,5.3,6.096h83.253c2.993-0.416,5.301-2.988,5.301-6.096v-49.762
			H62.686z"/>
	</g>
	<g>
		<defs>
			<path id="SVGID_23_" d="M62.686,202.037v20.782c0,1.704-1.379,3.078-3.078,3.078H36.022c-20.104,0-35.134,0-35.134-23.86v49.762
				c0,3.106,2.306,5.68,5.3,6.096h83.253c2.993-0.416,5.301-2.988,5.301-6.096v-49.762H62.686z"/>
		</defs>
		<clipPath id="SVGID_24_">
			<use xlink:href="#SVGID_23_"  overflow="visible"/>
		</clipPath>
		
			<linearGradient id="SVGID_25_" gradientUnits="userSpaceOnUse" x1="253.0349" y1="-180.1267" x2="253.2492" y2="-180.1267" gradientTransform="matrix(494.0735 -320.8094 320.8094 494.0735 -67226 170429.3438)">
			<stop  offset="0" style="stop-color:#9765FA"/>
			<stop  offset="1" style="stop-color:#2C005C"/>
		</linearGradient>
		<polygon clip-path="url(#SVGID_24_)" fill="url(#SVGID_25_)" points="-24.625,218.603 66.907,159.168 120.254,241.328 
			28.722,300.762 		"/>
	</g>
</g>
</svg>
