<?xml version="1.0" encoding="utf-8"?>
<!-- Generator: Adobe Illustrator 15.1.0, SVG Export Plug-In . SVG Version: 6.00 Build 0)  -->
<!DOCTYPE svg PUBLIC "-//W3C//DTD SVG 1.1//EN" "http://www.w3.org/Graphics/SVG/1.1/DTD/svg11.dtd">
<svg version="1.1" id="Layer_1" xmlns="http://www.w3.org/2000/svg" xmlns:xlink="http://www.w3.org/1999/xlink" x="0px" y="0px"
 width="1200px" height="255.828px" viewBox="0 0 1200 255.828" enable-background="new 0 0 1200 255.828" xml:space="preserve">
<rect x="425.367" y="105.636" fill="#232323" width="23.986" height="105.109"/>
<rect x="425.367" y="69.059" fill="#232323" width="23.986" height="23.978"/>
<rect x="1058.271" y="105.636" fill="#232323" width="23.985" height="104.984"/>
<rect x="1058.271" y="69.059" fill="#232323" width="23.985" height="23.978"/>
<polygon fill="#232323" points="409.862,90.533 409.862,69.06 313.711,69.06 313.711,210.745 339.44,210.745 339.44,156.012 
401.146,156.012 401.146,134.339 339.44,134.339 339.44,90.533 "/>
<path fill="#232323" d="M555.267,117.083c-3.932-3.799-8.541-6.662-13.8-8.574c-5.251-1.912-11.154-2.872-17.666-2.872
c-7.614,0-14.543,1.244-20.613,3.69c-6.052,2.445-11.137,6.103-15.128,10.861l-0.55,0.66v-15.211h-22.65v104.975h23.819v-52.488
c0-10.21,2.663-18.141,7.914-23.584c5.251-5.452,12.498-8.216,21.539-8.216c8.007,0,14.268,2.371,18.61,7.047
c4.341,4.667,6.537,11.681,6.537,20.838v56.403h23.818v-59.525C567.097,136.125,563.114,124.688,555.267,117.083"/>
<path fill="#232323" d="M1188.17,117.083c-7.856-7.598-18.442-11.446-31.466-11.446c-7.614,0-14.543,1.244-20.613,3.69
c-6.052,2.445-11.137,6.103-15.127,10.861l-0.551,0.66v-15.211h-22.65v104.975h23.819v-52.488c0-10.21,2.663-18.141,7.914-23.584
c5.251-5.452,12.498-8.216,21.539-8.216c8.007,0,14.268,2.371,18.609,7.047c4.341,4.667,6.537,11.681,6.537,20.838v56.403H1200
v-59.525C1200,136.125,1196.018,124.688,1188.17,117.083"/>
<path fill="#232323" d="M922.241,117.065c-3.924-3.799-8.531-6.653-13.774-8.558c-5.251-1.911-11.138-2.872-17.642-2.872
c-7.205,0-13.842,1.145-19.702,3.39c-5.853,2.255-10.837,5.544-14.819,9.785l-0.542,0.576V69.06h-23.777v141.552h23.777v-52.58
c0-10.186,2.663-18.108,7.896-23.543c5.244-5.443,12.482-8.198,21.508-8.198c7.989,0,14.242,2.362,18.584,7.029
c4.332,4.658,6.528,11.663,6.528,20.813v56.479h23.776v-59.608C934.055,136.066,930.08,124.654,922.241,117.065"/>
<path fill="#232323" d="M816.479,185.123c-12.975,15.578-32.519,25.488-54.383,25.488c-39.088,0-70.771-31.682-70.771-70.771
c0-39.087,31.684-70.771,70.771-70.771c21.848,0,41.384,9.902,54.365,25.464l-16.338,15.411
c-8.698-10.744-22.007-17.615-36.917-17.615c-26.239,0-47.513,21.273-47.513,47.512c0,26.24,21.273,47.513,47.513,47.513
c14.96,0,28.302-6.913,37.01-17.725L816.479,185.123z"/>
<path fill="#232323" d="M663.751,116.479c-3.975-3.59-8.872-6.297-14.661-8.104c-5.78-1.808-12.452-2.715-19.965-2.715h-38.066
v19.44h35.167c8.529,0,15.068,1.983,19.416,5.873c4.357,3.907,6.572,9.57,6.572,16.834v1.857H625.26
c-14.652,0-25.53,2.8-32.319,8.321c-6.78,5.514-10.212,12.928-10.212,22.057c0,5.83,1.574,11.129,4.673,15.751
c3.107,4.623,7.571,8.288,13.286,10.888c5.723,2.606,12.502,3.931,20.132,3.931c7.639,0,14.253-1.19,19.666-3.549
c5.382-2.34,9.587-5.78,12.503-10.212l0.575-0.866v14.627h22.148v-61.455C675.712,134.654,671.688,123.659,663.751,116.479
 M652.188,177.451c-1.939,5.189-5.331,9.237-10.069,12.028c-4.724,2.783-10.196,4.189-16.276,4.189
c-6.222,0-11.154-1.316-14.66-3.923c-3.549-2.624-5.34-6.214-5.34-10.671c0-9.304,7.114-14.019,21.158-14.019h25.213
L652.188,177.451z"/>
<path fill="#232323" d="M1030.697,116.479c-3.974-3.59-8.872-6.297-14.661-8.104c-5.779-1.808-12.451-2.715-19.965-2.715h-38.065
v19.44h35.167c8.528,0,15.067,1.983,19.416,5.873c4.356,3.907,6.571,9.57,6.571,16.834v1.857h-26.953
c-14.652,0-25.53,2.8-32.319,8.321c-6.78,5.514-10.212,12.928-10.212,22.057c0,5.83,1.574,11.129,4.673,15.751
c3.106,4.623,7.571,8.288,13.286,10.888c5.722,2.606,12.502,3.931,20.132,3.931c7.638,0,14.252-1.19,19.666-3.549
c5.381-2.34,9.587-5.78,12.503-10.212l0.575-0.866v14.627h22.147v-61.455C1042.658,134.654,1038.636,123.659,1030.697,116.479
 M1019.136,177.451c-1.94,5.189-5.331,9.237-10.07,12.028c-4.723,2.783-10.196,4.189-16.275,4.189
c-6.223,0-11.154-1.316-14.66-3.923c-3.55-2.624-5.34-6.214-5.34-10.671c0-9.304,7.113-14.019,21.157-14.019h25.213
L1019.136,177.451z"/>
<g>
<defs>
<path id="SVGID_1_" d="M32.093,220.814v-17.643c0-1.696,1.384-3.068,3.067-3.068h26.572v20.711c0,1.696-1.375,3.073-3.07,3.073
H35.16C33.478,223.888,32.093,222.511,32.093,220.814 M32.093,108.783V34.822c0-1.694,1.384-3.066,3.067-3.066h185.873
c1.688,0,3.052,1.372,3.052,3.066V53.41c0,1.688-1.364,3.061-3.052,3.061H67.865c-3.389,0-6.133,2.752-6.133,6.143v49.244H35.16
C33.478,111.857,32.093,110.476,32.093,108.783 M5.426-0.123C2.449,0.306,0.157,2.86,0.157,5.951V137.65
c0,3.399,2.746,6.141,6.144,6.141h159.216c1.696,0,3.065,1.369,3.065,3.061v18.258c0,1.686-1.369,3.06-3.065,3.06H6.301
c-3.398,0-6.144,2.749-6.144,6.135v75.38c0,3.087,2.292,5.652,5.269,6.07H88.4c2.978-0.418,5.259-2.983,5.259-6.07v-49.58h100.732
c3.38,0,6.132-2.75,6.132-6.125V117.98c0-3.383-2.752-6.123-6.132-6.123H93.659V91.468c0-1.688,1.376-3.065,3.077-3.065h153.163
c3.388,0,6.137-2.736,6.137-6.126V5.951c0-3.091-2.29-5.646-5.266-6.074H5.426z"/>
</defs>
<linearGradient id="SVGID_2_" gradientUnits="userSpaceOnUse" x1="0.1572" y1="127.8154" x2="256.0356" y2="127.8154">
<stop  offset="0" style="stop-color:#9765FA"/>
<stop  offset="1" style="stop-color:#2C005C"/>
</linearGradient>
<use xlink:href="#SVGID_1_"  overflow="visible" fill="url(#SVGID_2_)"/>
<clipPath id="SVGID_3_">
<use xlink:href="#SVGID_1_"  overflow="visible"/>
</clipPath>

<linearGradient id="SVGID_4_" gradientUnits="userSpaceOnUse" x1="-0.0469" y1="728.8799" x2="0.1662" y2="728.8799" gradientTransform="matrix(1340.0897 -704.5624 -704.5624 -1340.0898 513653.1875 976899.625)">
<stop  offset="0" style="stop-color:#9765FA"/>
<stop  offset="1" style="stop-color:#2C005C"/>
</linearGradient>
<polygon clip-path="url(#SVGID_3_)" fill="url(#SVGID_4_)" points="-105.232,55.289 200.619,-105.518 361.436,200.345 
55.568,361.15 "/>
</g>
<g>
<defs>
<path id="SVGID_5_" d="M5.426-0.123C2.449,0.306,0.157,2.86,0.157,5.951V137.65c0,3.399,2.746,6.141,6.144,6.141h47.451
l-6.336-31.934H35.16c-1.683,0-3.067-1.381-3.067-3.074V34.822c0-1.694,1.384-3.066,3.067-3.066h185.873
c27.244,0,35.003,7.18,35.003,24.653V5.951c0-3.091-2.29-5.646-5.266-6.074H5.426z"/>
</defs>
<linearGradient id="SVGID_6_" gradientUnits="userSpaceOnUse" x1="0.1572" y1="71.834" x2="256.0356" y2="71.834">
<stop  offset="0" style="stop-color:#9765FA"/>
<stop  offset="1" style="stop-color:#2C005C"/>
</linearGradient>
<use xlink:href="#SVGID_5_"  overflow="visible" fill="url(#SVGID_6_)"/>
<clipPath id="SVGID_7_">
<use xlink:href="#SVGID_5_"  overflow="visible"/>
</clipPath>

<linearGradient id="SVGID_8_" gradientUnits="userSpaceOnUse" x1="0.624" y1="728.9141" x2="0.8379" y2="728.9141" gradientTransform="matrix(-1827.3951 834.5104 834.5104 1827.395 -606836.3125 -1332542.625)">
<stop  offset="0" style="stop-color:#9765FA"/>
<stop  offset="1" style="stop-color:#2C005C"/>
</linearGradient>
<polygon clip-path="url(#SVGID_7_)" fill="url(#SVGID_8_)" points="310.418,118.956 44.313,240.475 -54.21,24.711 211.885,-96.801 
"/>
</g>
<g>
<defs>
<path id="SVGID_9_" d="M0.157,137.65c0,3.399,2.746,6.13,6.144,6.13h159.216c1.696,0,3.065,1.38,3.065,3.063v18.267
c0,1.686-1.369,3.06-3.065,3.06v31.935h28.874c3.38,0,6.132-2.75,6.132-6.129V117.98c0-3.39-2.752-6.134-6.132-6.134H35.16
c-22.914,0-35.003-2.18-35.003-23.443V137.65z"/>
</defs>
<linearGradient id="SVGID_10_" gradientUnits="userSpaceOnUse" x1="0.1572" y1="144.2529" x2="200.5234" y2="144.2529">
<stop  offset="0" style="stop-color:#9765FA"/>
<stop  offset="1" style="stop-color:#2C005C"/>
</linearGradient>
<use xlink:href="#SVGID_9_"  overflow="visible" fill="url(#SVGID_10_)"/>
<clipPath id="SVGID_11_">
<use xlink:href="#SVGID_9_"  overflow="visible"/>
</clipPath>

<linearGradient id="SVGID_12_" gradientUnits="userSpaceOnUse" x1="0.0967" y1="728.7822" x2="0.3104" y2="728.7822" gradientTransform="matrix(1441.6117 383.753 383.753 -1441.6117 -279837.2188 1050694.625)">
<stop  offset="0" style="stop-color:#9765FA"/>
<stop  offset="1" style="stop-color:#2C005C"/>
</linearGradient>
<polygon clip-path="url(#SVGID_11_)" fill="url(#SVGID_12_)" points="13.417,38.598 228.286,95.801 187.267,249.917 
-27.614,192.713 "/>
</g>
<g>
<defs>
<path id="SVGID_13_" d="M165.518,168.169H6.301c-3.398,0-6.144,2.742-6.144,6.135v75.38c0,3.095,2.292,5.657,5.28,6.07H35.16
v-31.877c-1.683,0-3.067-1.366-3.067-3.063v-17.643c0-1.699,1.384-3.068,3.067-3.068h159.231c3.38,0,6.132-2.75,6.132-6.129
V143.78C200.523,162.92,191.628,168.169,165.518,168.169"/>
</defs>
<linearGradient id="SVGID_14_" gradientUnits="userSpaceOnUse" x1="0.1572" y1="199.7676" x2="200.5234" y2="199.7676">
<stop  offset="0" style="stop-color:#9765FA"/>
<stop  offset="1" style="stop-color:#2C005C"/>
</linearGradient>
<use xlink:href="#SVGID_13_"  overflow="visible" fill="url(#SVGID_14_)"/>
<clipPath id="SVGID_15_">
<use xlink:href="#SVGID_13_"  overflow="visible"/>
</clipPath>

<linearGradient id="SVGID_16_" gradientUnits="userSpaceOnUse" x1="0.4712" y1="728.6406" x2="0.6839" y2="728.6406" gradientTransform="matrix(-1411.1553 580.7056 580.7056 1411.1553 -422245.25 -1028345.125)">
<stop  offset="0" style="stop-color:#9765FA"/>
<stop  offset="1" style="stop-color:#2C005C"/>
</linearGradient>
<polygon clip-path="url(#SVGID_15_)" fill="url(#SVGID_16_)" points="239.934,239.537 29.169,326.269 -39.245,159.995 
171.5,73.273 "/>
</g>
<g>
<defs>
<path id="SVGID_17_" d="M61.732,200.104v20.711c0,1.696-1.375,3.063-3.07,3.063H35.16c-20.035,0-35.003,0-35.003-23.773v49.58
c0,3.095,2.292,5.657,5.28,6.07h82.945c2.991-0.413,5.277-2.976,5.277-6.07v-49.58H61.732z"/>
</defs>
<linearGradient id="SVGID_18_" gradientUnits="userSpaceOnUse" x1="0.1572" y1="227.9287" x2="93.6592" y2="227.9287">
<stop  offset="0" style="stop-color:#9765FA"/>
<stop  offset="1" style="stop-color:#2C005C"/>
</linearGradient>
<use xlink:href="#SVGID_17_"  overflow="visible" fill="url(#SVGID_18_)"/>
<clipPath id="SVGID_19_">
<use xlink:href="#SVGID_17_"  overflow="visible"/>
</clipPath>

<linearGradient id="SVGID_20_" gradientUnits="userSpaceOnUse" x1="0.4277" y1="729.5332" x2="0.6409" y2="729.5332" gradientTransform="matrix(494.0735 -320.8094 -320.8094 -494.0735 233834.5469 360835.125)">
<stop  offset="0" style="stop-color:#9765FA"/>
<stop  offset="1" style="stop-color:#2C005C"/>
</linearGradient>
<polygon clip-path="url(#SVGID_19_)" fill="url(#SVGID_20_)" points="-25.263,216.612 65.934,157.399 119.083,239.253 
27.904,298.461 "/>
</g>
</svg>